<?xml version="1.0" encoding="utf-8"?>
<!-- Generator: Adobe Illustrator 27.3.1, SVG Export Plug-In . SVG Version: 6.00 Build 0)  -->
<svg version="1.1" id="Layer_1" xmlns="http://www.w3.org/2000/svg" xmlns:xlink="http://www.w3.org/1999/xlink" x="0px" y="0px"
	 viewBox="0 0 546.1 346.9" style="enable-background:new 0 0 546.1 346.9;" xml:space="preserve">
<style type="text/css">
	.st0{fill:#E73161;}
	.st1{fill:#E73161;stroke:#E73161;stroke-width:0.75;stroke-miterlimit:10;}
</style>
<g id="XMLID_00000088829941707138156900000009000569592086495160_">
	<path id="XMLID_00000178911245443164380550000016573549086884326053_" class="st0" d="M381.7,186.6c-18.7,2.1-36.9-4.1-48.5-10.5
		c-1.1-0.5-0.4-1-0.2-1.1c5.9-3.5,10.6-7.9,14.6-13.1c4.5-6,3.9-13.9-0.6-18c-3.6-3.4-7.8-4.6-12.5-4c-3.2,0.4-7.6,1.6-10.5,1.7
		c-6.5,0.4-9.2,2.8-9.2,7.6c-0.1,15.6,1.8,31.5,1.2,47.2c-0.1,3.4,0.6,5.6,2.1,6.9c1.8,1.6,4.4,2.4,6.8,1.8c2-0.5,2.5-3.5,2.6-5.4
		c0-5.7-0.7-7.5-1-14.3c-0.1-1.4,0.2-2.3,1.1-1.8c4.2,2.1,8.4,4.6,13.6,6.6c9.3,3.6,19.6,6.6,34.3,5.6c3-0.2,7.7-0.8,9.5-3.4
		C386.1,190.4,385.1,186.2,381.7,186.6z M337,147.4c3,0.2,6.7,2.5,4.5,6.9c-2.2,4.4-9.6,11.6-15.2,14c-0.8,0.3-1.8-0.1-2-1.4
		c-0.7-7.3-1.3-14.1,0.2-15.7C327.6,147.9,334.7,147.2,337,147.4z"/>
	<path id="XMLID_00000113341050154130402740000005735209279060776611_" class="st0" d="M90.1,81.2c-6.5-2.4-14.7-1.7-15-1.6
		c-0.3,0-0.7-0.4-0.3-1.1c0.6-0.9,4.3-7.1,5.6-10.6c4.1-10.8,0.8-17.6-10-20.4c-2.7-0.7-5.9-0.5-8.6,0c-6,1.2-12,2.6-17.8,4.4
		c-1.6,0.5-2.6,2-2.8,3.5c-0.5,4.4-0.6,13.3-0.4,17.8c0.5,15,1.1,24.9,2,39.9c0.4,7.5,4,12.4,8.1,14.4c3.2,1.6,7.8,1.5,10.3,0.7
		c6.2-2,12-5.1,17.5-8.9c8.7-6,14.7-11.4,17.7-21.7C98.4,90.6,97,83.7,90.1,81.2z M53.1,62.5c0.3-3.4,10.7-7.5,14.2-7
		c2.6,0.4,3.5,2,3.8,3.4c0.4,2.7-1.2,7.2-2.3,9.9c-2.8,7-7.3,13.3-9.8,15.3c-2.5,2-5.4,2.3-6.1,0.3C52.4,80.7,52.6,69.7,53.1,62.5z
		 M85.4,95.4c-2,9-11,14.9-21.2,20.4c-3.7,2-7.9,0.7-9.4-4.1c-2.8-8.6,1.2-13.6,8-17.5c6.2-3.5,10.7-5.8,18-4.7
		C84.6,90.2,86.1,92.3,85.4,95.4z"/>
	<path id="XMLID_00000147198757158643042680000005082722346611889281_" class="st0" d="M109,113.3c0.4,3.7,4.2,7.2,7.6,6.9
		c4.5-0.4,4.2-3.7,4-6.9c-0.2-2.6-1.1-8.9-1.5-11.1c-1.4-7.3-0.3-9.2,6.7-13.5c3-1.8,4.4-2,6.2,0.6c5.5,7.9,10.9,15.9,16.6,23.7
		c1.4,1.9,3.3,3.6,5.4,4.5c1.3,0.5,4-0.1,4.9-1.2c0.9-1.1,1.2-3.1,0.7-4.8c-0.5-1.5-1.6-2.6-2.4-3.8c-6.3-9-12.7-17.9-19-27
		c-0.7-1-1.5-2-1.1-3.1c0.9-2.6,2.7-5.8,4-8.3c3.4-6.3,2.7-14.2-3.8-17.1c-5.1-2.3-13.6-1.9-17.7-0.8c-4.5,1.2-7.3,2.2-11.8,3.9
		c-2.6,1-3.7,4.2-3.4,7.1C105.1,70,108.1,104.2,109,113.3z M115.7,64.6c1.8-1.7,10.9-4.4,15-4c1.6,0.1,2.4,1.8,1.9,3.4
		c-2.4,6.8-7.2,13.4-15,18.8c-0.5,0.3-1.2,0.2-1.3-0.4c-0.6-5.3-1-9.8-1.5-15.5C114.9,65.7,115.3,65,115.7,64.6z"/>
	<path id="XMLID_00000110436065065068768620000008947582905878311593_" class="st0" d="M180,119.4c8.8,0.7,16-1.4,24.3-4.4
		c4.1-1.5,6.4-5.2,3.8-7.8c-3-3.1-4.6-2.6-8.1-1c-5.5,2.4-8.2,3.1-14.1,3.9c-3.7,0.5-6.2,0.2-7.4-2c-1.4-2.6-1.9-8.4-1.7-12.4
		c0.2-2.7,2.2-3,5.1-3.6c4.9-0.6,9.2-0.7,15.8-1.8c2.6-0.4,5.6-1.3,4.4-5.1c-1.2-3.7-4-3.3-6.9-3c-2.8,0.2-5.9,0.9-8.7,1.2
		c-8.9,1.1-10.1,0.2-10-4.5c0-3,0-8.1,0.1-9.3c0.2-2.9,1-3.6,3-4.4c10.5-4.2,20.8-3.7,23.4-4.9c3.5-1.6,4-7.7,2.1-9.1
		c-0.9-0.7-2.4-0.7-3.1-0.7c-11.1,1.3-20,2.6-28.8,5.2c-4.3,1.3-5.7,2.9-5.9,6.1c-1,14.8-1.3,27.6-0.6,42.5
		C167.3,113.6,171.6,118.8,180,119.4z"/>
	<path id="XMLID_00000089559394649953354800000004869343830146841511_" class="st0" d="M251.8,68.8c-1.6-5.2-4.7-10.4-8.5-14.4
		c-6.8-7.1-14.8-5.2-17.5,4c-4.9,16.2-6.6,33.6-6.2,50.5c0.1,2.5,1,5.4,2.8,7.2c1.2,1.3,4.7,1.4,6.7,1.2c1.9-0.2,2.4-2.9,2.5-4.6
		c0.1-2.5-0.2-5.6,0.3-7.9c0.3-1.5,0.6-2.7,2-3.3c4-1.7,8.7-3.2,13.8-4.9c0.4-0.2,0.6,0.3,0.7,0.5c1.1,4.2,2.1,8.7,3.7,13
		c1.1,2.9,3,5.8,5.3,7.8c1.2,1.1,4.4,0.9,6.2,0c1.2-0.6,0.8-3.4,0.3-5.1C260,98.2,256.4,83.4,251.8,68.8z M232,92.1
		c-0.1-0.9,0.8-19.4,2.3-27.1c0.4-2,2.7-4.7,5.1-1.1c1.5,2.3,6.5,23.2,6.4,24.5c0,0.4-0.2,0.6-0.8,0.8c-0.9,0.4-9.8,2.9-12.2,3.5
		C232.4,92.9,232.1,92.5,232,92.1z"/>
	<path id="XMLID_00000073702978924281557810000011267922757560660356_" class="st0" d="M289.4,100.6c-1.3,4.1-3.1,6.4-8,8.3
		c-4.4,1.7-6.5,3-5.6,6.1c0.7,2.6,4.9,5.7,10.2,3.9c3.6-1.3,7.8-5,11.1-8.5c4.5-4.9,5.7-12.1,2.1-17.5c-2.9-4.4-6.2-8.5-9.5-12.6
		c-2.8-3.4-5.2-6-8.2-9.4c-2.6-2.9-2.5-5.5,0-6.9c2.8-1.7,5.8-2.7,8.7-3.8c3.8-1.4,4.4-5.3,0.8-7.4c-2.2-1.2-5.1-2.2-7.7-1.5
		c-3.9,1-7.7,3.1-11.1,5.3c-4.8,3.1-5.8,9.7-2.5,14.5c4.1,5.8,7.5,9.3,12.3,14.5C289.1,93.2,290.5,97.1,289.4,100.6z"/>
	<path id="XMLID_00000060014533841404825660000009338208065179993757_" class="st0" d="M326.7,69.8c-0.6,9.5-1.5,18.9-1.8,28.4
		c-0.1,5,0,10,1.1,14.9c0.9,4.4,5.3,7.8,8.7,6.7c4.8-1.5,2.6-5.1,2-8.1c-3.1-16-0.1-31.5,2.5-47.1c0-0.2,0.5-0.7,1.6-0.9
		c7.7-1.3,13.5-2,20.7-3.5c1.8-0.4,4.8-1.4,4.8-3.6c0.1-2.6-1.5-4.4-3.2-5.5c-1.8-1.2-4.8-1.1-7.1-0.8c-15.3,1.8-30.6,3.8-45.9,5.7
		c-4.2,0.5-5.9,2.7-4.1,6.5c1.8,3.8,4.6,6.4,9.4,5.4c3.5-0.7,10.9-2.3,11.4-1.8C327.1,66.4,326.7,68.8,326.7,69.8z"/>
	<path id="XMLID_00000058580689126069567860000014874909035891312302_" class="st0" d="M43.5,203.3c5.5,5.4,15.4,5.4,23.3,2.4
		c7.4-2.8,12.6-8.1,17.2-13.9c2.7-3.3,3.5-6.3,2.8-9c-0.7-2.6-6.1-4.8-8.4-1.1c-3.4,5.4-8.1,9.6-13.3,12.2
		c-7.3,3.7-13.3,3.2-16.9-4.2c-6.1-12.5,3.8-31.3,13-38.2c1-0.8,3.1-0.7,4.5-0.3c4.4,1.1,6.4-0.6,5.6-5.1
		c-1.2-7.1-8.3-10.3-14.5-6.5c-9,5.5-15.1,13.4-18.9,23.1C32.3,176.7,32.8,192.7,43.5,203.3z"/>
	<path id="XMLID_00000072265352543922991320000012523402769154210183_" class="st0" d="M107,205c2-0.5,2.3-2.8,2.4-4.6
		c0.1-2.5,0-4.9,0.3-7.2c0.2-1.7,0.2-2.9,3-4c3.9-1.6,7.5-2.6,12.5-4.2c0.4-0.1,0.6,0.1,0.7,0.7c1.2,4.2,2,8.4,3.6,12.7
		c1.1,2.9,2.6,5.8,4.9,7.8c1.2,1.1,4.3,1,6.2,0.4c1.2-0.4,1.6-1.7,0.6-5.4c-3.7-14.7-7.3-29.5-11.8-43.9c-1.6-5.2-3.5-9.1-7.3-13.1
		c-6.7-7-15.6-6.4-18.3,2.7c-4.8,16.2-6.4,32.8-6.1,49.6c0.1,3.7,0.9,5.7,2.6,7.5C101.5,205.4,105.1,205.4,107,205z M113.7,153.7
		c0.4-1.7,2.3-2.1,3.3-0.2c3.1,7.5,4.5,14.9,6.7,23.5c0,0.1,0.1,0.4-0.2,0.5c-4,1.2-12.3,3.5-13.1,3.4c-0.6-0.2-0.7-0.5-0.6-1.7
		C110.4,170.3,113.3,155.3,113.7,153.7z"/>
	<path id="XMLID_00000078035824316484522580000011816413304873974928_" class="st0" d="M163.2,161.3c1,0.2,3.9,4.5,5.3,6.9
		c6.7,11.8,10.7,18.4,16.8,30.5c1.3,2.6,3.4,5.3,5.9,6.8c4.7,2.8,7.8,0.5,7.5-5.1c-1-19.3-2-38.7-3-58c-0.2-3.9-3.1-6.7-6.9-6.4
		c-4.7,0.4-4,3.6-3.9,6.9c0.4,10.5,0.7,21.1,1.1,31.9c0,0.5-0.3,0.8-0.6,0.5c-4.1-6.4-7.7-11.6-11.7-18c-4.2-6.8-9.6-14-16.8-15.4
		c-4.5-0.9-7.9,0.1-7.6,5.8c0.4,7.8,1,13.4,1.6,21.2c0.8,10.1,2.1,20.1,3.1,30.1c0.4,4,2.8,6.6,6.7,7.5c3.7,1,5.8-0.9,5.4-4.6
		c-1.4-13.9-2.4-22.5-3.9-36.4C162.2,164.1,161.8,161.1,163.2,161.3z"/>
	<path id="XMLID_00000150816155946507760090000015566242172646692013_" class="st0" d="M303.4,142.3c-0.6-0.4-2.5-1.3-5.9-0.5
		c-8.5,1.9-17.1,3.9-25.5,6.1c-1.3,0.3-3,2.2-3.1,3.4c-1.1,9.4-2.6,18.9-2.1,28.2c0.3,5.6,1.8,16.7,5.6,20.4
		c7.6,7.4,19.4,4.3,28.7-3c2.5-2,1.1-7.8-2.9-7.5c-2.9,0.2-9.4,2.6-13.2,3.6c-1.4,0.4-3.5,0.1-4.8-0.9c-1.3-1-2.5-9.3-2.3-12.9
		c0.1-1.9,1-2.1,3.5-3.1c4.9-1.9,13.2-3.8,18.1-5.9c1.3-0.6,3-3.1,2.7-4.1c-0.5-1.6-2.4-3.5-4-3.9c-1.8-0.5-4,0.5-6,0.9
		c-3.8,0.9-13.1,4.3-13.7,4.5c-0.6,0.2-1.2-0.1-1.3-0.9c-0.1-0.8-0.5-8.3,4.1-9.9c6.3-2.2,22.2-6.9,23.4-8.3
		C305.7,147,305.5,143.6,303.4,142.3z"/>
	<path id="XMLID_00000159438484210565098340000011661132854662789791_" class="st0" d="M86.8,229.5c-0.2-3.9-3.1-6.7-6.9-6.4
		c-4.7,0.4-4,3.6-3.9,6.9c0.4,10.1,0.9,20.5,1.3,30.9c0,0.9-0.5,1.1-0.9,0.5c-3.9-6.8-6.8-12.2-10.8-18.6
		c-4.2-6.8-7.2-13.8-14.8-16.6c-3.2-1.2-8.6-2.1-9.3,3.4c-1,7.8-0.1,46.7,0.3,56.7c0.2,4.1,1.9,7.8,5.9,7.6c3.6-0.1,6.8-2.1,6.4-5.9
		c-1.4-13.9-1.5-23.9-1.8-37.9c-0.1-3,2.2-1.5,3.2,0.1c6.8,11.7,13.9,23.7,20.8,35.7c1.5,2.5,3.4,5.3,5.9,6.8
		c4.7,2.8,7.8,0.5,7.5-5.1C88.8,268.2,87.8,248.8,86.8,229.5z"/>
	<path id="XMLID_00000157310370263072975950000007856541886997647551_" class="st0" d="M233.8,228.1c-1.2-5-5.4-3.6-8.5-3.1
		c-2.7,0.5-3.2,2.6-3.2,3.9c0.3,9,1.7,17.9,1.6,26.8c0,7-0.9,14.3-2.7,21c-0.2,0.6-0.8,0.7-1.2,0.1c-4-8.5-7-17.3-7.2-26.9
		c0-2.4-0.9-5.8-2.6-7c-1.8-1.2-5.4-1-7.7-0.1c-1.3,0.5-2.2,2.5-2.1,5.5c0.7,11.4-2.2,20.6-8.8,30.1c-1.1,1.7-2.7,0.9-3.3,0
		c-1-1.7-0.9-7.3-0.7-11.3c0.6-12.6,2.1-24.9,3-37.5c0.3-4.2-2.4-5.3-5.6-5.8c-3.1-0.4-5.7-0.2-5.9,4.3c-0.2,7-1.4,13.9-1.7,20.9
		c-0.5,11.7-2.5,23.6,1.4,35c1.8,5.2,5.1,9,11.2,9.8c6,0.8,8.7-3,11.3-7.2c1.8-3,4.8-8.7,5-9.1c0.6-1.2,1.3-0.6,1.6-0.1
		c0.3,0.6,3.6,7.5,6.5,10.3c6.4,6.1,13.5,3.1,16.3-5.2c5-14.5,4.6-29.5,4.4-44.4C235.2,234.8,234.6,231.4,233.8,228.1z"/>
	<path id="XMLID_00000008836693044583153090000010509693462379134592_" class="st0" d="M167.3,242.3c-0.8-4.9-3.6-7.5-4.7-8
		c-1.9-0.8-3.2-0.3-4,0.2c-1.1,0.7-1.8,1.9-1.9,3.4c-0.1,0.9,0.1,1.9,0.4,2.9c1.8,4.9-0.3,11.2-2.3,15.7c-2.2,4.9-7.4,11.9-9.7,14.3
		c-7.2,7.5-18.2,14.2-26.9,9.9c-4.8-2.4-8.4-8-8.6-13c-0.5-15.5,10.1-23.7,20.1-28.9c1.6-0.8,4.2-1.9,5.8-2.4
		c4.4-1.3,7.6-3.1,7.1-7.6c-0.2-1.7-2.7-6.1-9.1-4.8c-2,0.4-3.5,0.7-6.3,2c-10.5,5-18.8,14.1-24,24.6c-6.7,13.5-2.3,28.9,3.5,35
		c4.9,5.2,11.6,7.8,19.1,7.8h0.1c9.2,0,19-4.2,25.6-10.9c5.4-5.4,10.6-14.3,13-20.4C167.1,256,168.4,248.8,167.3,242.3z"/>
	<path id="XMLID_00000026845425360031103310000001585310388138116504_" class="st0" d="M251.9,186.9c-3.9,5.1-8.3,8.3-13.6,10
		c-7.8,2.5-12.2,1.8-15.8-5.6c-6.1-12.6,0.2-30.9,10.3-37c2.2-1.3,4.6-2.1,7.7-1.8c4.4,0.4,7.4-1.8,6.6-6.4
		c-1.3-7.1-11.3-8.5-17.5-4.8c-9.1,5.5-15.2,13.4-19,23.1c-5.6,14.3-2,30.7,8.6,39.3c6,4.9,12.2,6.1,20.4,3.8
		c7.6-2.1,12.4-6.4,17.1-12.1c2.2-2.8,2.9-5.4,2.7-7.7C259,184.4,254.2,183.8,251.9,186.9z"/>
</g>
<g>
	<path class="st1" d="M279.9,229.9v2.8h-8.5v21.6h-3v-21.6h-8.5v-2.8H279.9z"/>
	<path class="st1" d="M282.9,254.3v-27h3v11.3c0.6-1.1,1.5-1.9,2.6-2.4s2.2-0.7,3.5-0.7c1.3,0,2.5,0.3,3.6,0.8
		c1.1,0.5,2,1.3,2.6,2.3s1,2.4,1,4v11.8h-3v-10.8c0-2-0.4-3.5-1.3-4.3c-0.9-0.8-2-1.2-3.2-1.2c-0.9,0-1.8,0.2-2.7,0.6
		c-0.9,0.4-1.6,1.1-2.2,2.1c-0.6,1-0.9,2.2-0.9,3.8v9.8H282.9z"/>
	<path class="st1" d="M311.2,254.7c-1.8,0-3.3-0.4-4.7-1.1c-1.4-0.8-2.4-1.9-3.2-3.3c-0.8-1.4-1.1-3.2-1.1-5.2s0.4-3.7,1.1-5.2
		c0.8-1.4,1.8-2.5,3.1-3.3c1.3-0.8,2.8-1.1,4.6-1.1c1.7,0,3.2,0.4,4.4,1.1c1.2,0.7,2.2,1.7,2.8,3c0.6,1.3,1,2.7,1,4.3
		c0,0.4,0,0.8,0,1.1c0,0.3-0.1,0.7-0.1,0.9h-14.9v-2.6h13.7l-1.5,0.3c0-1.8-0.5-3.1-1.5-4.1s-2.3-1.4-3.8-1.4
		c-1.2,0-2.3,0.3-3.1,0.8c-0.9,0.6-1.6,1.4-2,2.4c-0.5,1-0.7,2.3-0.7,3.8c0,1.5,0.2,2.7,0.7,3.8c0.5,1.1,1.2,1.9,2.1,2.4
		c0.9,0.6,2,0.8,3.2,0.8c1.4,0,2.5-0.3,3.3-0.8c0.9-0.5,1.5-1.2,2.1-2.1l2.3,1.4c-0.5,0.8-1.1,1.6-1.8,2.2c-0.7,0.6-1.6,1.1-2.6,1.4
		S312.4,254.7,311.2,254.7z"/>
	<path class="st1" d="M335.6,254.3v-18.5h2.4l0.4,3c0.5-1.1,1.3-2,2.3-2.6s2.2-0.9,3.6-0.9c0.3,0,0.7,0,1.1,0.1c0.4,0,0.7,0.1,1,0.3
		l-0.5,2.7c-0.3-0.1-0.6-0.2-0.9-0.2c-0.3,0-0.8-0.1-1.4-0.1c-0.8,0-1.5,0.2-2.3,0.7c-0.8,0.4-1.4,1.1-1.9,2c-0.5,0.9-0.8,2-0.8,3.4
		v10H335.6z"/>
	<path class="st1" d="M355.7,254.7c-1.8,0-3.3-0.4-4.7-1.1c-1.4-0.8-2.4-1.9-3.2-3.3c-0.8-1.4-1.1-3.2-1.1-5.2s0.4-3.7,1.1-5.2
		c0.8-1.4,1.8-2.5,3.1-3.3c1.3-0.8,2.8-1.1,4.6-1.1c1.7,0,3.2,0.4,4.4,1.1c1.2,0.7,2.2,1.7,2.8,3c0.6,1.3,1,2.7,1,4.3
		c0,0.4,0,0.8,0,1.1c0,0.3-0.1,0.7-0.1,0.9h-14.9v-2.6h13.7l-1.5,0.3c0-1.8-0.5-3.1-1.5-4.1s-2.3-1.4-3.8-1.4
		c-1.2,0-2.3,0.3-3.1,0.8c-0.9,0.6-1.6,1.4-2,2.4c-0.5,1-0.7,2.3-0.7,3.8c0,1.5,0.2,2.7,0.7,3.8c0.5,1.1,1.2,1.9,2.1,2.4
		c0.9,0.6,2,0.8,3.2,0.8c1.4,0,2.5-0.3,3.3-0.8c0.9-0.5,1.5-1.2,2.1-2.1l2.3,1.4c-0.5,0.8-1.1,1.6-1.8,2.2c-0.7,0.6-1.6,1.1-2.6,1.4
		S356.9,254.7,355.7,254.7z"/>
	<path class="st1" d="M374.4,254.7c-1.8,0-3.5-0.4-5-1.1c-1.5-0.8-2.7-1.8-3.5-3.3l2.5-1.8c0.5,1.1,1.3,2,2.4,2.7s2.3,1,3.8,1
		c1.3,0,2.3-0.3,3.1-0.8c0.7-0.5,1.1-1.2,1.1-2c0-0.5-0.2-1-0.5-1.4c-0.3-0.4-1-0.7-1.9-0.9l-4.4-0.9c-1.8-0.4-3.1-1-3.9-1.8
		c-0.8-0.9-1.2-1.9-1.2-3.2c0-1,0.3-1.9,0.9-2.8c0.6-0.8,1.4-1.5,2.5-2s2.3-0.8,3.8-0.8c1.8,0,3.4,0.4,4.6,1.1
		c1.3,0.7,2.2,1.7,2.8,3l-2.5,1.6c-0.4-1.1-1.1-1.9-2-2.4c-0.9-0.5-1.9-0.8-2.9-0.8c-0.9,0-1.6,0.1-2.3,0.4c-0.6,0.2-1.1,0.6-1.4,1
		s-0.5,0.9-0.5,1.5s0.2,1,0.6,1.5c0.4,0.5,1.1,0.8,2.1,1l4.6,1c1.7,0.3,2.9,0.9,3.6,1.7c0.7,0.8,1,1.8,1,2.9c0,1.2-0.3,2.2-0.9,3.1
		c-0.6,0.9-1.5,1.5-2.6,2C377.1,254.5,375.8,254.7,374.4,254.7z"/>
	<path class="st1" d="M394,254.7c-1.8,0-3.3-0.4-4.7-1.1c-1.4-0.8-2.4-1.9-3.2-3.3c-0.8-1.4-1.1-3.2-1.1-5.2s0.4-3.7,1.1-5.2
		c0.8-1.4,1.8-2.5,3.1-3.3c1.3-0.8,2.8-1.1,4.6-1.1c1.7,0,3.2,0.4,4.4,1.1c1.2,0.7,2.2,1.7,2.8,3c0.6,1.3,1,2.7,1,4.3
		c0,0.4,0,0.8,0,1.1c0,0.3-0.1,0.7-0.1,0.9h-14.9v-2.6h13.7l-1.5,0.3c0-1.8-0.5-3.1-1.5-4.1s-2.3-1.4-3.8-1.4
		c-1.2,0-2.3,0.3-3.1,0.8c-0.9,0.6-1.6,1.4-2,2.4c-0.5,1-0.7,2.3-0.7,3.8c0,1.5,0.2,2.7,0.7,3.8c0.5,1.1,1.2,1.9,2.1,2.4
		c0.9,0.6,2,0.8,3.2,0.8c1.4,0,2.5-0.3,3.3-0.8c0.9-0.5,1.5-1.2,2.1-2.1l2.3,1.4c-0.5,0.8-1.1,1.6-1.8,2.2c-0.7,0.6-1.6,1.1-2.6,1.4
		S395.3,254.7,394,254.7z"/>
	<path class="st1" d="M417.6,242.4c0-1.4-0.4-2.4-1.1-3.2c-0.7-0.8-1.8-1.1-3.1-1.1c-1.3,0-2.4,0.3-3.3,0.8c-0.9,0.6-1.5,1.4-2,2.7
		l-2.4-1.5c0.5-1.4,1.4-2.5,2.7-3.3c1.3-0.9,3-1.3,5-1.3c1.3,0,2.5,0.2,3.6,0.7c1.1,0.5,1.9,1.1,2.6,2.1s0.9,2.1,0.9,3.6v9
		c0,0.9,0.5,1.3,1.4,1.3c0.5,0,0.9-0.1,1.4-0.2l-0.1,2.3c-0.5,0.2-1.1,0.4-1.9,0.4c-0.7,0-1.4-0.1-1.9-0.4c-0.6-0.3-1-0.7-1.3-1.2
		c-0.3-0.6-0.5-1.3-0.5-2.1v-0.4l0.7,0.1c-0.3,1-0.8,1.7-1.5,2.3c-0.7,0.6-1.5,1-2.4,1.3c-0.9,0.3-1.8,0.4-2.6,0.4
		c-1.1,0-2.1-0.2-3-0.6c-0.9-0.4-1.7-0.9-2.2-1.7c-0.6-0.8-0.8-1.7-0.8-2.8c0-1.4,0.5-2.5,1.4-3.4c0.9-0.9,2.2-1.5,3.9-1.8l7.3-1.4
		v2.4l-6,1.2c-1.2,0.2-2.1,0.6-2.7,1c-0.6,0.4-0.9,1.1-0.9,1.9c0,0.8,0.3,1.4,0.9,1.9c0.6,0.5,1.5,0.7,2.6,0.7
		c0.7,0,1.4-0.1,2.1-0.3c0.7-0.2,1.2-0.5,1.8-0.9c0.5-0.4,0.9-0.9,1.2-1.4c0.3-0.6,0.4-1.3,0.4-2.1V242.4z"/>
	<path class="st1" d="M426.8,254.3v-18.5h2.4l0.4,3c0.5-1.1,1.3-2,2.3-2.6s2.2-0.9,3.6-0.9c0.3,0,0.7,0,1.1,0.1c0.4,0,0.7,0.1,1,0.3
		l-0.5,2.7c-0.3-0.1-0.6-0.2-0.9-0.2c-0.3,0-0.8-0.1-1.4-0.1c-0.8,0-1.5,0.2-2.3,0.7c-0.8,0.4-1.4,1.1-1.9,2c-0.5,0.9-0.8,2-0.8,3.4
		v10H426.8z"/>
	<path class="st1" d="M448.1,235.5c1.3,0,2.4,0.2,3.4,0.6c1,0.4,1.8,1,2.5,1.7c0.7,0.7,1.3,1.6,1.7,2.6l-2.8,1.3
		c-0.4-1.2-1-2.1-1.8-2.7c-0.8-0.6-1.8-0.9-3.1-0.9c-1.2,0-2.3,0.3-3.2,0.8c-0.9,0.6-1.6,1.4-2,2.4c-0.5,1-0.7,2.3-0.7,3.8
		c0,1.5,0.2,2.7,0.7,3.8s1.1,1.9,2,2.4c0.9,0.6,1.9,0.8,3.2,0.8c1,0,1.8-0.1,2.5-0.4s1.3-0.7,1.7-1.3c0.5-0.6,0.8-1.3,0.9-2.1l2.7,1
		c-0.4,1.1-1,2.1-1.7,2.9c-0.7,0.8-1.6,1.4-2.6,1.9c-1,0.4-2.2,0.6-3.5,0.6c-1.7,0-3.3-0.4-4.6-1.1c-1.4-0.8-2.4-1.9-3.2-3.3
		c-0.8-1.4-1.1-3.2-1.1-5.2s0.4-3.7,1.1-5.2c0.8-1.4,1.8-2.5,3.2-3.3S446.4,235.5,448.1,235.5z"/>
	<path class="st1" d="M459.2,254.3v-27h3v11.3c0.6-1.1,1.5-1.9,2.6-2.4s2.2-0.7,3.5-0.7c1.3,0,2.5,0.3,3.6,0.8
		c1.1,0.5,2,1.3,2.6,2.3s1,2.4,1,4v11.8h-3v-10.8c0-2-0.4-3.5-1.3-4.3c-0.9-0.8-2-1.2-3.2-1.2c-0.9,0-1.8,0.2-2.7,0.6
		c-0.9,0.4-1.6,1.1-2.2,2.1c-0.6,1-0.9,2.2-0.9,3.8v9.8H459.2z"/>
	<path class="st1" d="M495.3,254.7c-1.6,0-3-0.3-4.2-0.9c-1.2-0.6-2-1.3-2.7-2.3c-0.6-1-0.9-2.1-0.9-3.4c0-0.8,0.1-1.5,0.3-2.2
		c0.2-0.7,0.5-1.4,1-2c0.5-0.6,1.1-1.2,1.9-1.8c0.8-0.6,1.8-1.1,3-1.6l1.6-0.8c0.9-0.5,1.7-1,2.3-1.5c0.6-0.5,1.1-1,1.4-1.5
		c0.3-0.5,0.5-1.2,0.5-1.9c0-0.9-0.3-1.5-0.8-2c-0.5-0.5-1.3-0.7-2.2-0.7c-1.1,0-1.8,0.3-2.3,0.9c-0.5,0.6-0.8,1.3-0.8,2
		c0,0.5,0.1,0.9,0.2,1.4s0.4,1,0.8,1.6s1,1.5,1.8,2.6c0.8,1.1,1.9,2.5,3.3,4.2c1.4,1.7,2.6,3.1,3.5,4.2c0.9,1,1.7,1.8,2.3,2.4
		c0.6,0.5,1.2,0.9,1.8,1.1c0.6,0.2,1.2,0.3,1.8,0.3l-0.7,2.2c-0.7,0-1.4-0.1-2-0.3c-0.6-0.2-1.3-0.5-2.1-1.1
		c-0.8-0.6-1.7-1.4-2.7-2.6c-1-1.1-2.3-2.7-3.9-4.6c-1.3-1.7-2.4-3-3.3-4.2c-0.9-1.1-1.6-2.1-2.1-2.9c-0.5-0.8-0.9-1.5-1.1-2.2
		c-0.2-0.7-0.3-1.3-0.3-2c0-0.9,0.2-1.8,0.6-2.6c0.4-0.8,1.1-1.5,2-2.1c0.9-0.5,2-0.8,3.4-0.8c1.1,0,2,0.2,2.8,0.6
		c0.8,0.4,1.4,1,1.9,1.7c0.5,0.7,0.7,1.6,0.7,2.6c0,0.9-0.1,1.7-0.4,2.5c-0.3,0.8-0.8,1.5-1.6,2.3c-0.8,0.8-1.9,1.5-3.5,2.3
		l-1.3,0.5c-1.3,0.6-2.3,1.2-3,1.7c-0.7,0.6-1.2,1.2-1.5,1.8s-0.4,1.4-0.4,2.3c0,0.9,0.2,1.7,0.7,2.4s1.1,1.2,1.9,1.5
		s1.7,0.5,2.7,0.5c1.4,0,2.5-0.2,3.4-0.7c0.9-0.5,1.8-1.2,2.6-2.1l0.5-0.4c0.6-1,1.1-2.2,1.5-3.4c0.4-1.3,0.5-2.7,0.4-4.3l2.5,0.2
		c0.1,1.6-0.1,3.1-0.5,4.7c-0.4,1.5-1.1,2.9-2.1,4.1l-0.6,0.8c-0.9,1.1-2.1,2-3.4,2.6S497.1,254.7,495.3,254.7z"/>
	<path class="st1" d="M268.8,292.7c-1.8,0-3.5-0.4-5-1.1c-1.5-0.8-2.7-1.8-3.5-3.3l2.5-1.8c0.5,1.1,1.3,2,2.4,2.7s2.3,1,3.8,1
		c1.3,0,2.3-0.3,3.1-0.8c0.7-0.5,1.1-1.2,1.1-2c0-0.5-0.2-1-0.5-1.4c-0.3-0.4-1-0.7-1.9-0.9l-4.4-0.9c-1.8-0.4-3.1-1-3.9-1.8
		c-0.8-0.9-1.2-1.9-1.2-3.2c0-1,0.3-1.9,0.9-2.8s1.4-1.5,2.5-2s2.3-0.8,3.8-0.8c1.8,0,3.4,0.4,4.6,1.1c1.3,0.7,2.2,1.7,2.8,3
		l-2.5,1.6c-0.4-1.1-1.1-1.9-2-2.4c-0.9-0.5-1.9-0.8-2.9-0.8c-0.9,0-1.6,0.1-2.3,0.4c-0.6,0.2-1.1,0.6-1.4,1s-0.5,0.9-0.5,1.5
		s0.2,1,0.6,1.5c0.4,0.5,1.1,0.8,2.1,1l4.6,1c1.7,0.3,2.9,0.9,3.6,1.7c0.7,0.8,1,1.8,1,2.9c0,1.2-0.3,2.2-0.9,3.1
		c-0.6,0.9-1.5,1.5-2.6,2C271.6,292.5,270.3,292.7,268.8,292.7z"/>
	<path class="st1" d="M285.6,292.7c-1.2,0-2.3-0.2-3.3-0.7c-1-0.4-1.9-1.2-2.6-2.2s-1-2.3-1-3.9v-12.1h3v11.4c0,1.9,0.4,3.2,1.2,3.9
		c0.8,0.7,2,1.1,3.4,1.1c0.7,0,1.4-0.1,2-0.4s1.3-0.6,1.8-1.1c0.5-0.5,1-1.2,1.3-1.9c0.3-0.8,0.5-1.7,0.5-2.8v-10.1h3v18.5h-2.6
		l-0.2-2.8c-0.6,1.1-1.5,1.9-2.6,2.4C288.4,292.5,287.1,292.7,285.6,292.7z"/>
	<path class="st1" d="M299,300.1v-26.3h2.6l0.3,4.5l-0.4-0.5c0.3-0.9,0.8-1.6,1.4-2.3c0.6-0.7,1.4-1.2,2.3-1.5
		c0.9-0.4,1.9-0.6,3-0.6c1.5,0,2.9,0.4,4.2,1.1s2.3,1.9,3.1,3.3s1.1,3.2,1.1,5.2c0,2-0.4,3.7-1.2,5.2c-0.8,1.4-1.8,2.5-3.1,3.3
		c-1.3,0.8-2.7,1.1-4.2,1.1s-2.9-0.4-4-1.1c-1.1-0.8-2-1.7-2.5-2.9l0.4-0.6v12H299z M307.8,290.1c1.8,0,3.2-0.6,4.3-1.9
		c1-1.3,1.5-3,1.5-5.1c0-2.1-0.5-3.8-1.5-5.1c-1-1.3-2.4-1.9-4.2-1.9c-1.2,0-2.2,0.3-3.1,0.9c-0.9,0.6-1.6,1.4-2.1,2.4
		c-0.5,1-0.7,2.3-0.7,3.7c0,1.4,0.2,2.6,0.7,3.7c0.5,1.1,1.2,1.9,2,2.5C305.6,289.8,306.6,290.1,307.8,290.1z"/>
	<path class="st1" d="M319.5,300.1v-26.3h2.6l0.3,4.5l-0.4-0.5c0.3-0.9,0.8-1.6,1.4-2.3c0.6-0.7,1.4-1.2,2.3-1.5
		c0.9-0.4,1.9-0.6,3-0.6c1.5,0,2.9,0.4,4.2,1.1s2.3,1.9,3.1,3.3s1.1,3.2,1.1,5.2c0,2-0.4,3.7-1.2,5.2c-0.8,1.4-1.8,2.5-3.1,3.3
		c-1.3,0.8-2.7,1.1-4.2,1.1s-2.9-0.4-4-1.1c-1.1-0.8-2-1.7-2.5-2.9l0.4-0.6v12H319.5z M328.3,290.1c1.8,0,3.2-0.6,4.3-1.9
		c1-1.3,1.5-3,1.5-5.1c0-2.1-0.5-3.8-1.5-5.1c-1-1.3-2.4-1.9-4.2-1.9c-1.2,0-2.2,0.3-3.1,0.9c-0.9,0.6-1.6,1.4-2.1,2.4
		c-0.5,1-0.7,2.3-0.7,3.7c0,1.4,0.2,2.6,0.7,3.7c0.5,1.1,1.2,1.9,2,2.5C326.1,289.8,327.1,290.1,328.3,290.1z"/>
	<path class="st1" d="M348.4,273.5c1.8,0,3.3,0.4,4.6,1.1s2.4,1.9,3.2,3.3c0.8,1.4,1.1,3.2,1.1,5.2s-0.4,3.7-1.1,5.2
		c-0.8,1.4-1.8,2.5-3.2,3.3c-1.3,0.8-2.9,1.1-4.6,1.1c-1.7,0-3.3-0.4-4.6-1.1c-1.4-0.8-2.4-1.9-3.2-3.3c-0.8-1.4-1.1-3.2-1.1-5.2
		s0.4-3.7,1.1-5.2c0.8-1.4,1.8-2.5,3.2-3.3S346.6,273.5,348.4,273.5z M348.4,276c-1.3,0-2.3,0.3-3.2,0.9s-1.6,1.4-2.1,2.4
		c-0.5,1-0.7,2.3-0.7,3.8c0,1.5,0.2,2.7,0.7,3.8c0.5,1.1,1.2,1.9,2.1,2.4c0.9,0.6,2,0.9,3.2,0.9c1.3,0,2.3-0.3,3.2-0.9
		c0.9-0.6,1.6-1.4,2.1-2.4c0.5-1.1,0.7-2.3,0.7-3.8c0-1.5-0.2-2.7-0.7-3.8c-0.5-1-1.2-1.9-2.1-2.4C350.7,276.3,349.6,276,348.4,276z
		"/>
	<path class="st1" d="M360.5,292.3v-18.5h2.4l0.4,3c0.5-1.1,1.3-2,2.3-2.6s2.2-0.9,3.6-0.9c0.3,0,0.7,0,1.1,0.1c0.4,0,0.7,0.1,1,0.3
		l-0.5,2.7c-0.3-0.1-0.6-0.2-0.9-0.2c-0.3,0-0.8-0.1-1.4-0.1c-0.8,0-1.5,0.2-2.3,0.7c-0.8,0.4-1.4,1.1-1.9,2c-0.5,0.9-0.8,2-0.8,3.4
		v10H360.5z"/>
	<path class="st1" d="M387.3,273.8v2.6h-13.4v-2.6H387.3z M380.6,268.6v18.6c0,0.9,0.3,1.6,0.8,2c0.5,0.4,1.2,0.7,2,0.7
		c0.7,0,1.3-0.1,1.8-0.4c0.5-0.2,1-0.6,1.4-1l1,2.5c-0.6,0.5-1.2,0.9-2,1.2s-1.7,0.4-2.7,0.4c-0.9,0-1.8-0.2-2.6-0.5
		c-0.8-0.3-1.5-0.9-1.9-1.6c-0.5-0.7-0.7-1.7-0.8-2.9v-18.4L380.6,268.6z"/>
	<path class="st1" d="M410.2,273.5c1.3,0,2.4,0.2,3.4,0.6c1,0.4,1.8,1,2.5,1.7c0.7,0.7,1.3,1.6,1.7,2.6l-2.8,1.3
		c-0.4-1.2-1-2.1-1.8-2.7c-0.8-0.6-1.8-0.9-3.1-0.9c-1.2,0-2.3,0.3-3.2,0.8c-0.9,0.6-1.6,1.4-2,2.4c-0.5,1-0.7,2.3-0.7,3.8
		c0,1.5,0.2,2.7,0.7,3.8s1.1,1.9,2,2.4c0.9,0.6,1.9,0.8,3.2,0.8c1,0,1.8-0.1,2.5-0.4s1.3-0.7,1.7-1.3c0.5-0.6,0.8-1.3,0.9-2.1l2.7,1
		c-0.4,1.1-1,2.1-1.7,2.9c-0.7,0.8-1.6,1.4-2.6,1.9c-1,0.4-2.2,0.6-3.5,0.6c-1.7,0-3.3-0.4-4.6-1.1c-1.4-0.8-2.4-1.9-3.2-3.3
		c-0.8-1.4-1.1-3.2-1.1-5.2s0.4-3.7,1.1-5.2c0.8-1.4,1.8-2.5,3.2-3.3S408.5,273.5,410.2,273.5z"/>
	<path class="st1" d="M420.5,292.3v-27h3v11.3c0.6-1.1,1.5-1.9,2.6-2.4s2.2-0.7,3.5-0.7c1.3,0,2.5,0.3,3.6,0.8
		c1.1,0.5,2,1.3,2.6,2.3s1,2.4,1,4v11.8h-3v-10.8c0-2-0.4-3.5-1.3-4.3c-0.9-0.8-2-1.2-3.2-1.2c-0.9,0-1.8,0.2-2.7,0.6
		c-0.9,0.4-1.6,1.1-2.2,2.1c-0.6,1-0.9,2.2-0.9,3.8v9.8H420.5z"/>
	<path class="st1" d="M451.9,280.4c0-1.4-0.4-2.4-1.1-3.2c-0.7-0.8-1.8-1.1-3.1-1.1c-1.3,0-2.4,0.3-3.3,0.8c-0.9,0.6-1.5,1.4-2,2.7
		l-2.4-1.5c0.5-1.4,1.4-2.5,2.7-3.3c1.3-0.9,3-1.3,5-1.3c1.3,0,2.5,0.2,3.6,0.7c1.1,0.5,1.9,1.1,2.6,2.1s0.9,2.1,0.9,3.6v9
		c0,0.9,0.5,1.3,1.4,1.3c0.5,0,0.9-0.1,1.4-0.2l-0.1,2.3c-0.5,0.2-1.1,0.4-1.9,0.4c-0.7,0-1.4-0.1-1.9-0.4c-0.6-0.3-1-0.7-1.3-1.2
		c-0.3-0.6-0.5-1.3-0.5-2.1v-0.4l0.7,0.1c-0.3,1-0.8,1.7-1.5,2.3c-0.7,0.6-1.5,1-2.4,1.3c-0.9,0.3-1.8,0.4-2.6,0.4
		c-1.1,0-2.1-0.2-3-0.6c-0.9-0.4-1.7-0.9-2.2-1.7c-0.6-0.8-0.8-1.7-0.8-2.8c0-1.4,0.5-2.5,1.4-3.4c0.9-0.9,2.2-1.5,3.9-1.8l7.3-1.4
		v2.4l-6,1.2c-1.2,0.2-2.1,0.6-2.7,1c-0.6,0.4-0.9,1.1-0.9,1.9c0,0.8,0.3,1.4,0.9,1.9c0.6,0.5,1.5,0.7,2.6,0.7
		c0.7,0,1.4-0.1,2.1-0.3c0.7-0.2,1.2-0.5,1.8-0.9c0.5-0.4,0.9-0.9,1.2-1.4c0.3-0.6,0.4-1.3,0.4-2.1V280.4z"/>
	<path class="st1" d="M460.4,292.3v-18.5h2.4l0.4,3c0.5-1.1,1.3-2,2.3-2.6s2.2-0.9,3.6-0.9c0.3,0,0.7,0,1.1,0.1c0.4,0,0.7,0.1,1,0.3
		l-0.5,2.7c-0.3-0.1-0.6-0.2-0.9-0.2c-0.3,0-0.8-0.1-1.4-0.1c-0.8,0-1.5,0.2-2.3,0.7c-0.8,0.4-1.4,1.1-1.9,2c-0.5,0.9-0.8,2-0.8,3.4
		v10H460.4z"/>
	<path class="st1" d="M476.1,270.3c-0.7,0-1.2-0.2-1.6-0.6c-0.4-0.4-0.6-0.9-0.6-1.6s0.2-1.2,0.6-1.6c0.4-0.4,0.9-0.6,1.6-0.6
		s1.2,0.2,1.6,0.6c0.4,0.4,0.6,0.9,0.6,1.6s-0.2,1.2-0.6,1.6C477.3,270.1,476.7,270.3,476.1,270.3z M477.6,273.8v18.5h-3v-18.5
		H477.6z"/>
	<path class="st1" d="M494.6,273.8v2.6h-13.4v-2.6H494.6z M487.9,268.6v18.6c0,0.9,0.3,1.6,0.8,2c0.5,0.4,1.2,0.7,2,0.7
		c0.7,0,1.3-0.1,1.8-0.4c0.5-0.2,1-0.6,1.4-1l1,2.5c-0.6,0.5-1.2,0.9-2,1.2s-1.7,0.4-2.7,0.4c-0.9,0-1.8-0.2-2.6-0.5
		c-0.8-0.3-1.5-0.9-1.9-1.6c-0.5-0.7-0.7-1.7-0.8-2.9v-18.4L487.9,268.6z"/>
	<path class="st1" d="M514.9,273.8l-8.7,21.6c-0.5,1.2-1,2.2-1.5,2.9c-0.6,0.7-1.2,1.2-1.9,1.5s-1.5,0.5-2.3,0.5
		c-0.8,0-1.6-0.1-2.3-0.4s-1.3-0.5-1.9-0.9l0.8-2.6c0.5,0.4,1,0.8,1.6,1c0.6,0.2,1.1,0.3,1.6,0.3c0.6,0,1.2-0.2,1.8-0.6
		c0.6-0.4,1.1-1.2,1.6-2.4l1-2.4l-1.9-4.4l-5.9-14.1h3.4l4.6,12.1l1.1,3.3l1.3-3.7l4.3-11.7H514.9z"/>
</g>
</svg>
